<svg version="1.1" xmlns="http://www.w3.org/2000/svg" width="1224" height="792"><defs><clipPath id="CTNyoAFDmeVy"><path fill="none" stroke="none" d="M 0.5 0.5 L 1224.5 0.5 L 1224.5 792.5 L 0.5 792.5 L 0.5 0.5 Z M 26.5 5.5 L 1194.5 5.5 L 1194.5 770.5 L 26.5 770.5 L 26.5 5.5 Z" clip-rule="evenodd"/></clipPath><clipPath id="nxpATlwknxdD"><path fill="none" stroke="none" d="M 26.5 5.5 L 1194.5 5.5 L 1194.5 770.5 L 26.5 770.5 L 26.5 5.5 Z"/></clipPath><clipPath id="ETapucrbTdfZ"><path fill="none" stroke="none" d="M 26.5 5.5 L 1194.5 5.5 L 1194.5 770.5 L 26.5 770.5 L 26.5 5.5 Z"/></clipPath><clipPath id="HttDwNzDcFkC"><path fill="none" stroke="none" d="M 26.5 5.5 L 1194.5 5.5 L 1194.5 770.5 L 26.5 770.5 L 26.5 5.5 Z"/></clipPath><clipPath id="adVTwFSbxgrb"><path fill="none" stroke="none" d="M 26.5 5.5 L 1194.5 5.5 L 1194.5 770.5 L 26.5 770.5 L 26.5 5.5 Z"/></clipPath><clipPath id="iqruntdOvfqT"><path fill="none" stroke="none" d="M 26.5 5.5 L 1194.5 5.5 L 1194.5 770.5 L 26.5 770.5 L 26.5 5.5 Z"/></clipPath></defs><path fill="rgb(255,255,255)" stroke="none" paint-order="stroke" d="M 0.5 0.5 L 1224.5 0.5 L 1224.5 792.5 L 0.5 792.5 L 0.5 0.5 Z" fill-opacity="1" clip-path="url(#CTNyoAFDmeVy)"/><path fill="rgb(255,255,255)" stroke="none" paint-order="stroke" d="M 26.5 5.5 L 1194.5 5.5 L 1194.5 770.5 L 26.5 770.5 L 26.5 5.5 Z" fill-opacity="1"/><path fill="none" stroke="rgb(229,229,229)" paint-order="fill" d="M 26.5 5.5 L 1194.5 5.5 L 1194.5 770.5 L 26.5 770.5 L 26.5 5.5 Z" stroke-opacity="1" stroke-linejoin="bevel" stroke-miterlimit="10"/><path fill="none" stroke="rgb(229,229,229)" paint-order="fill" d="M 170.5 770.5 L 170.5 5.5 M 315.5 770.5 L 315.5 5.5 M 459.5 770.5 L 459.5 5.5 M 603.5 770.5 L 603.5 5.5 M 748.5 770.5 L 748.5 5.5 M 892.5 770.5 L 892.5 5.5 M 1037.5 770.5 L 1037.5 5.5 M 1181.5 770.5 L 1181.5 5.5" stroke-opacity="1" stroke-linejoin="bevel" stroke-miterlimit="10" clip-path="url(#nxpATlwknxdD)"/><path fill="none" stroke="rgb(229,229,229)" paint-order="fill" d="M 26.5 626.5 L 1194.5 626.5 M 26.5 482.5 L 1194.5 482.5 M 26.5 338.5 L 1194.5 338.5 M 26.5 194.5 L 1194.5 194.5 M 26.5 50.5 L 1194.5 50.5" stroke-opacity="1" stroke-linejoin="bevel" stroke-miterlimit="10" clip-path="url(#ETapucrbTdfZ)"/><path fill="none" stroke="rgb(0,0,255)" paint-order="fill" d="M 98.68540954589844 482.5 L 170.87081909179688 554.5 L 243.0562286376953 410.5 L 315.24163818359375 626.5" stroke-opacity="1" stroke-linejoin="bevel" stroke-miterlimit="10" stroke-width="2" clip-path="url(#HttDwNzDcFkC)"/><path fill="none" stroke="rgb(0,0,0)" paint-order="fill" d="M 26.5 770.5 L 1194.5 770.5" stroke-opacity="1" stroke-linejoin="bevel" stroke-miterlimit="10"/><path fill="none" stroke="rgb(0,0,0)" paint-order="fill" d="M 26.5 776.5 L 26.5 768.5 M 170.5 776.5 L 170.5 768.5 M 315.5 776.5 L 315.5 768.5 M 459.5 776.5 L 459.5 768.5 M 603.5 776.5 L 603.5 768.5 M 748.5 776.5 L 748.5 768.5 M 892.5 776.5 L 892.5 768.5 M 1037.5 776.5 L 1037.5 768.5 M 1181.5 776.5 L 1181.5 768.5" stroke-opacity="1" stroke-linejoin="bevel" stroke-miterlimit="10"/><path fill="none" stroke="rgb(0,0,0)" paint-order="fill" d="M 26.5 774.5 L 26.5 770.5 M 55.5 774.5 L 55.5 770.5 M 84.5 774.5 L 84.5 770.5 M 113.5 774.5 L 113.5 770.5 M 141.5 774.5 L 141.5 770.5 M 170.5 774.5 L 170.5 770.5 M 199.5 774.5 L 199.5 770.5 M 228.5 774.5 L 228.5 770.5 M 257.5 774.5 L 257.5 770.5 M 286.5 774.5 L 286.5 770.5 M 315.5 774.5 L 315.5 770.5 M 344.5 774.5 L 344.5 770.5 M 372.5 774.5 L 372.5 770.5 M 401.5 774.5 L 401.5 770.5 M 430.5 774.5 L 430.5 770.5 M 459.5 774.5 L 459.5 770.5 M 488.5 774.5 L 488.5 770.5 M 517.5 774.5 L 517.5 770.5 M 546.5 774.5 L 546.5 770.5 M 575.5 774.5 L 575.5 770.5 M 603.5 774.5 L 603.5 770.5 M 632.5 774.5 L 632.5 770.5 M 661.5 774.5 L 661.5 770.5 M 690.5 774.5 L 690.5 770.5 M 719.5 774.5 L 719.5 770.5 M 748.5 774.5 L 748.5 770.5 M 777.5 774.5 L 777.5 770.5 M 806.5 774.5 L 806.5 770.5 M 834.5 774.5 L 834.5 770.5 M 863.5 774.5 L 863.5 770.5 M 892.5 774.5 L 892.5 770.5 M 921.5 774.5 L 921.5 770.5 M 950.5 774.5 L 950.5 770.5 M 979.5 774.5 L 979.5 770.5 M 1008.5 774.5 L 1008.5 770.5 M 1037.5 774.5 L 1037.5 770.5 M 1065.5 774.5 L 1065.5 770.5 M 1094.5 774.5 L 1094.5 770.5 M 1123.5 774.5 L 1123.5 770.5 M 1152.5 774.5 L 1152.5 770.5 M 1181.5 774.5 L 1181.5 770.5" stroke-opacity="1" stroke-linejoin="bevel" stroke-miterlimit="10"/><text fill="rgb(68,68,68)" stroke="none" font-family="helvetica" font-size="11px" font-style="normal" font-weight="normal" text-decoration="normal" x="22.941162109375" y="789" text-anchor="start" dominant-baseline="alphabetic" transform="matrix(1, 0, 0, 1, 0.5, 0.5)" fill-opacity="1">0</text><text fill="none" stroke="rgb(0,0,0)" font-family="helvetica" font-size="11px" font-style="normal" font-weight="normal" text-decoration="normal" x="22.941162109375" y="789" text-anchor="start" dominant-baseline="alphabetic" transform="matrix(1, 0, 0, 1, 0.5, 0.5)" stroke-opacity="0" stroke-linejoin="bevel" stroke-miterlimit="10">0</text><text fill="rgb(68,68,68)" stroke="none" font-family="helvetica" font-size="11px" font-style="normal" font-weight="normal" text-decoration="normal" x="167.31198120117188" y="789" text-anchor="start" dominant-baseline="alphabetic" transform="matrix(1, 0, 0, 1, 0.5, 0.5)" fill-opacity="1">2</text><text fill="none" stroke="rgb(0,0,0)" font-family="helvetica" font-size="11px" font-style="normal" font-weight="normal" text-decoration="normal" x="167.31198120117188" y="789" text-anchor="start" dominant-baseline="alphabetic" transform="matrix(1, 0, 0, 1, 0.5, 0.5)" stroke-opacity="0" stroke-linejoin="bevel" stroke-miterlimit="10">2</text><text fill="rgb(68,68,68)" stroke="none" font-family="helvetica" font-size="11px" font-style="normal" font-weight="normal" text-decoration="normal" x="311.68280029296875" y="789" text-anchor="start" dominant-baseline="alphabetic" transform="matrix(1, 0, 0, 1, 0.5, 0.5)" fill-opacity="1">4</text><text fill="none" stroke="rgb(0,0,0)" font-family="helvetica" font-size="11px" font-style="normal" font-weight="normal" text-decoration="normal" x="311.68280029296875" y="789" text-anchor="start" dominant-baseline="alphabetic" transform="matrix(1, 0, 0, 1, 0.5, 0.5)" stroke-opacity="0" stroke-linejoin="bevel" stroke-miterlimit="10">4</text><text fill="rgb(68,68,68)" stroke="none" font-family="helvetica" font-size="11px" font-style="normal" font-weight="normal" text-decoration="normal" x="456.0536193847656" y="789" text-anchor="start" dominant-baseline="alphabetic" transform="matrix(1, 0, 0, 1, 0.5, 0.5)" fill-opacity="1">6</text><text fill="none" stroke="rgb(0,0,0)" font-family="helvetica" font-size="11px" font-style="normal" font-weight="normal" text-decoration="normal" x="456.0536193847656" y="789" text-anchor="start" dominant-baseline="alphabetic" transform="matrix(1, 0, 0, 1, 0.5, 0.5)" stroke-opacity="0" stroke-linejoin="bevel" stroke-miterlimit="10">6</text><text fill="rgb(68,68,68)" stroke="none" font-family="helvetica" font-size="11px" font-style="normal" font-weight="normal" text-decoration="normal" x="600.4244384765625" y="789" text-anchor="start" dominant-baseline="alphabetic" transform="matrix(1, 0, 0, 1, 0.5, 0.5)" fill-opacity="1">8</text><text fill="none" stroke="rgb(0,0,0)" font-family="helvetica" font-size="11px" font-style="normal" font-weight="normal" text-decoration="normal" x="600.4244384765625" y="789" text-anchor="start" dominant-baseline="alphabetic" transform="matrix(1, 0, 0, 1, 0.5, 0.5)" stroke-opacity="0" stroke-linejoin="bevel" stroke-miterlimit="10">8</text><text fill="rgb(68,68,68)" stroke="none" font-family="helvetica" font-size="11px" font-style="normal" font-weight="normal" text-decoration="normal" x="741.7363891601562" y="789" text-anchor="start" dominant-baseline="alphabetic" transform="matrix(1, 0, 0, 1, 0.5, 0.5)" fill-opacity="1">10</text><text fill="none" stroke="rgb(0,0,0)" font-family="helvetica" font-size="11px" font-style="normal" font-weight="normal" text-decoration="normal" x="741.7363891601562" y="789" text-anchor="start" dominant-baseline="alphabetic" transform="matrix(1, 0, 0, 1, 0.5, 0.5)" stroke-opacity="0" stroke-linejoin="bevel" stroke-miterlimit="10">10</text><text fill="rgb(68,68,68)" stroke="none" font-family="helvetica" font-size="11px" font-style="normal" font-weight="normal" text-decoration="normal" x="886.1072387695312" y="789" text-anchor="start" dominant-baseline="alphabetic" transform="matrix(1, 0, 0, 1, 0.5, 0.5)" fill-opacity="1">12</text><text fill="none" stroke="rgb(0,0,0)" font-family="helvetica" font-size="11px" font-style="normal" font-weight="normal" text-decoration="normal" x="886.1072387695312" y="789" text-anchor="start" dominant-baseline="alphabetic" transform="matrix(1, 0, 0, 1, 0.5, 0.5)" stroke-opacity="0" stroke-linejoin="bevel" stroke-miterlimit="10">12</text><text fill="rgb(68,68,68)" stroke="none" font-family="helvetica" font-size="11px" font-style="normal" font-weight="normal" text-decoration="normal" x="1030.47802734375" y="789" text-anchor="start" dominant-baseline="alphabetic" transform="matrix(1, 0, 0, 1, 0.5, 0.5)" fill-opacity="1">14</text><text fill="none" stroke="rgb(0,0,0)" font-family="helvetica" font-size="11px" font-style="normal" font-weight="normal" text-decoration="normal" x="1030.47802734375" y="789" text-anchor="start" dominant-baseline="alphabetic" transform="matrix(1, 0, 0, 1, 0.5, 0.5)" stroke-opacity="0" stroke-linejoin="bevel" stroke-miterlimit="10">14</text><text fill="rgb(68,68,68)" stroke="none" font-family="helvetica" font-size="11px" font-style="normal" font-weight="normal" text-decoration="normal" x="1174.848876953125" y="789" text-anchor="start" dominant-baseline="alphabetic" transform="matrix(1, 0, 0, 1, 0.5, 0.5)" fill-opacity="1">16</text><text fill="none" stroke="rgb(0,0,0)" font-family="helvetica" font-size="11px" font-style="normal" font-weight="normal" text-decoration="normal" x="1174.848876953125" y="789" text-anchor="start" dominant-baseline="alphabetic" transform="matrix(1, 0, 0, 1, 0.5, 0.5)" stroke-opacity="0" stroke-linejoin="bevel" stroke-miterlimit="10">16</text><path fill="none" stroke="rgb(0,0,0)" paint-order="fill" d="M 26.5 770.5 L 26.5 5.5" stroke-opacity="1" stroke-linejoin="bevel" stroke-miterlimit="10"/><path fill="none" stroke="rgb(0,0,0)" paint-order="fill" d="M 20.5 770.5 L 28.5 770.5 M 20.5 626.5 L 28.5 626.5 M 20.5 482.5 L 28.5 482.5 M 20.5 338.5 L 28.5 338.5 M 20.5 194.5 L 28.5 194.5 M 20.5 50.5 L 28.5 50.5" stroke-opacity="1" stroke-linejoin="bevel" stroke-miterlimit="10"/><path fill="none" stroke="rgb(0,0,0)" paint-order="fill" d="M 22.5 770.5 L 26.5 770.5 M 22.5 741.5 L 26.5 741.5 M 22.5 712.5 L 26.5 712.5 M 22.5 684.5 L 26.5 684.5 M 22.5 655.5 L 26.5 655.5 M 22.5 626.5 L 26.5 626.5 M 22.5 597.5 L 26.5 597.5 M 22.5 568.5 L 26.5 568.5 M 22.5 540.5 L 26.5 540.5 M 22.5 511.5 L 26.5 511.5 M 22.5 482.5 L 26.5 482.5 M 22.5 453.5 L 26.5 453.5 M 22.5 424.5 L 26.5 424.5 M 22.5 396.5 L 26.5 396.5 M 22.5 367.5 L 26.5 367.5 M 22.5 338.5 L 26.5 338.5 M 22.5 309.5 L 26.5 309.5 M 22.5 280.5 L 26.5 280.5 M 22.5 252.5 L 26.5 252.5 M 22.5 223.5 L 26.5 223.5 M 22.5 194.5 L 26.5 194.5 M 22.5 165.5 L 26.5 165.5 M 22.5 136.5 L 26.5 136.5 M 22.5 108.5 L 26.5 108.5 M 22.5 79.5 L 26.5 79.5 M 22.5 50.5 L 26.5 50.5 M 22.5 21.5 L 26.5 21.5" stroke-opacity="1" stroke-linejoin="bevel" stroke-miterlimit="10"/><text fill="rgb(68,68,68)" stroke="none" font-family="helvetica" font-size="11px" font-style="normal" font-weight="normal" text-decoration="normal" x="8.88232421875" y="774" text-anchor="start" dominant-baseline="alphabetic" transform="matrix(1, 0, 0, 1, 0.5, 0.5)" fill-opacity="1">0</text><text fill="none" stroke="rgb(0,0,0)" font-family="helvetica" font-size="11px" font-style="normal" font-weight="normal" text-decoration="normal" x="8.88232421875" y="774" text-anchor="start" dominant-baseline="alphabetic" transform="matrix(1, 0, 0, 1, 0.5, 0.5)" stroke-opacity="0" stroke-linejoin="bevel" stroke-miterlimit="10">0</text><text fill="rgb(68,68,68)" stroke="none" font-family="helvetica" font-size="11px" font-style="normal" font-weight="normal" text-decoration="normal" x="8.88232421875" y="630" text-anchor="start" dominant-baseline="alphabetic" transform="matrix(1, 0, 0, 1, 0.5, 0.5)" fill-opacity="1">2</text><text fill="none" stroke="rgb(0,0,0)" font-family="helvetica" font-size="11px" font-style="normal" font-weight="normal" text-decoration="normal" x="8.88232421875" y="630" text-anchor="start" dominant-baseline="alphabetic" transform="matrix(1, 0, 0, 1, 0.5, 0.5)" stroke-opacity="0" stroke-linejoin="bevel" stroke-miterlimit="10">2</text><text fill="rgb(68,68,68)" stroke="none" font-family="helvetica" font-size="11px" font-style="normal" font-weight="normal" text-decoration="normal" x="8.88232421875" y="486" text-anchor="start" dominant-baseline="alphabetic" transform="matrix(1, 0, 0, 1, 0.5, 0.5)" fill-opacity="1">4</text><text fill="none" stroke="rgb(0,0,0)" font-family="helvetica" font-size="11px" font-style="normal" font-weight="normal" text-decoration="normal" x="8.88232421875" y="486" text-anchor="start" dominant-baseline="alphabetic" transform="matrix(1, 0, 0, 1, 0.5, 0.5)" stroke-opacity="0" stroke-linejoin="bevel" stroke-miterlimit="10">4</text><text fill="rgb(68,68,68)" stroke="none" font-family="helvetica" font-size="11px" font-style="normal" font-weight="normal" text-decoration="normal" x="8.88232421875" y="342" text-anchor="start" dominant-baseline="alphabetic" transform="matrix(1, 0, 0, 1, 0.5, 0.5)" fill-opacity="1">6</text><text fill="none" stroke="rgb(0,0,0)" font-family="helvetica" font-size="11px" font-style="normal" font-weight="normal" text-decoration="normal" x="8.88232421875" y="342" text-anchor="start" dominant-baseline="alphabetic" transform="matrix(1, 0, 0, 1, 0.5, 0.5)" stroke-opacity="0" stroke-linejoin="bevel" stroke-miterlimit="10">6</text><text fill="rgb(68,68,68)" stroke="none" font-family="helvetica" font-size="11px" font-style="normal" font-weight="normal" text-decoration="normal" x="8.88232421875" y="198" text-anchor="start" dominant-baseline="alphabetic" transform="matrix(1, 0, 0, 1, 0.5, 0.5)" fill-opacity="1">8</text><text fill="none" stroke="rgb(0,0,0)" font-family="helvetica" font-size="11px" font-style="normal" font-weight="normal" text-decoration="normal" x="8.88232421875" y="198" text-anchor="start" dominant-baseline="alphabetic" transform="matrix(1, 0, 0, 1, 0.5, 0.5)" stroke-opacity="0" stroke-linejoin="bevel" stroke-miterlimit="10">8</text><text fill="rgb(68,68,68)" stroke="none" font-family="helvetica" font-size="11px" font-style="normal" font-weight="normal" text-decoration="normal" x="2.7646484375" y="54" text-anchor="start" dominant-baseline="alphabetic" transform="matrix(1, 0, 0, 1, 0.5, 0.5)" fill-opacity="1">10</text><text fill="none" stroke="rgb(0,0,0)" font-family="helvetica" font-size="11px" font-style="normal" font-weight="normal" text-decoration="normal" x="2.7646484375" y="54" text-anchor="start" dominant-baseline="alphabetic" transform="matrix(1, 0, 0, 1, 0.5, 0.5)" stroke-opacity="0" stroke-linejoin="bevel" stroke-miterlimit="10">10</text><path fill="rgb(255,255,255)" stroke="rgb(229,229,229)" paint-order="fill" d="M 1075.5 15.5 L 1184.5 15.5 L 1184.5 55.5 L 1075.5 55.5 L 1075.5 15.5 Z" fill-opacity="0.9490196078431372" clip-path="url(#adVTwFSbxgrb)" stroke-opacity="0.5019607843137255" stroke-linejoin="bevel" stroke-miterlimit="10"/><path fill="none" stroke="rgb(0,0,255)" paint-order="fill" d="M 1085.5 35.5 L 1105.5 35.5" stroke-opacity="1" stroke-linejoin="bevel" stroke-miterlimit="10" stroke-width="2" clip-path="url(#adVTwFSbxgrb)"/><g clip-path="url(#adVTwFSbxgrb)"><text fill="rgb(68,68,68)" stroke="none" font-family="helvetica" font-size="13px" font-style="normal" font-weight="normal" text-decoration="normal" x="0" y="4.5" text-anchor="start" dominant-baseline="alphabetic" transform="matrix(1, 0, 0, 1, 1110.5, 35.5)" fill-opacity="1">ground line</text></g><g clip-path="url(#adVTwFSbxgrb)"><text fill="none" stroke="rgb(0,0,0)" font-family="helvetica" font-size="13px" font-style="normal" font-weight="normal" text-decoration="normal" x="0" y="4.5" text-anchor="start" dominant-baseline="alphabetic" transform="matrix(1, 0, 0, 1, 1110.5, 35.5)" stroke-opacity="0" stroke-linejoin="bevel" stroke-miterlimit="10">ground line</text></g></svg>